<?xml version="1.0" encoding="utf-8"?>
<!-- Generator: Adobe Illustrator 23.0.1, SVG Export Plug-In . SVG Version: 6.00 Build 0)  -->
<svg version="1.1" id="Layer_1" xmlns="http://www.w3.org/2000/svg" xmlns:xlink="http://www.w3.org/1999/xlink" x="0px" y="0px"
	 viewBox="0 0 108.7 109.2" style="enable-background:new 0 0 108.7 109.2;" xml:space="preserve">
<g>
	<polygon points="76.1,102.6 70,108.7 70,87.7 76.1,83.9 	"/>
	<polygon points="54.4,40.9 45.5,45.1 45.5,51.8 54.4,47.8 70,56.1 70,69 70,66.8 70,66.8 70,72.8 54.4,81.1 38.8,72.8 32.7,69.5 
		32.7,103.1 38.8,109.2 38.8,79.7 54.4,88 76.1,76.5 76.1,52.4 	"/>
	<polygon points="63.2,59.5 54.4,64.2 38.8,56 38.8,31 54.4,22.7 70,30.9 70,37.5 76.1,40.5 76.1,27.2 54.4,15.7 32.7,27.3 
		32.7,59.6 54.4,71.2 63.2,66.4 	"/>
	<polygon points="54.4,0 54.4,0 0.1,28.9 0.1,35.8 54.4,6.9 54.4,6.9 54.4,6.9 54.4,6.9 54.4,6.9 54.4,6.9 54.4,6.9 108.7,35.8 
		108.7,28.9 	"/>
	<polygon points="0,44.3 14.1,52 14.1,44.7 18,42.9 18,54.1 18.1,54.1 18.1,88.6 24.3,94.8 24.3,31.5 	"/>
	<polygon points="90.7,42.9 94.6,44.7 94.6,52 108.7,44.3 84.4,31.5 84.4,94.8 90.6,88.6 90.6,54.1 90.7,54.1 	"/>
</g>
</svg>
